<svg height="478" width="720" xmlns="http://www.w3.org/2000/svg">
<rect height="478" fill="#555" width="720"></rect>
<text fill="#7f7" font-family="Courier New" font-size="12" xml:space="preserve">
<tspan x="10" y="26">4 megabytes installed</tspan>
<tspan x="10" y="42"></tspan>
<tspan x="10" y="58">node_modules</tspan>
<tspan x="10" y="74">└─┬ folderify@1.2.1 </tspan>
<tspan x="10" y="90">  ├─┬ brfs@1.0.2 </tspan>
<tspan x="10" y="106">  │ ├─┬ escodegen@0.0.17 </tspan>
<tspan x="10" y="122">  │ │ ├── estraverse@0.0.4 </tspan>
<tspan x="10" y="138">  │ │ └── source-map@0.5.6 </tspan>
<tspan x="10" y="154">  │ ├─┬ falafel@0.1.6 </tspan>
<tspan x="10" y="170">  │ │ └── esprima@1.0.4 </tspan>
<tspan x="10" y="186">  │ └── through@2.2.7 </tspan>
<tspan x="10" y="202">  ├─┬ concat-stream@1.6.0 </tspan>
<tspan x="10" y="218">  │ ├── inherits@2.0.3 </tspan>
<tspan x="10" y="234">  │ ├─┬ readable-stream@2.2.9 </tspan>
<tspan x="10" y="250">  │ │ ├── buffer-shims@1.0.0 </tspan>
<tspan x="10" y="266">  │ │ ├── core-util-is@1.0.2 </tspan>
<tspan x="10" y="282">  │ │ ├── isarray@1.0.0 </tspan>
<tspan x="10" y="298">  │ │ ├── process-nextick-args@1.0.7 </tspan>
<tspan x="10" y="314">  │ │ ├── string_decoder@1.0.0 </tspan>
<tspan x="10" y="330">  │ │ └── util-deprecate@1.0.2 </tspan>
<tspan x="10" y="346">  │ └── typedarray@0.0.6 </tspan>
<tspan x="10" y="362">  ├─┬ falafel@1.2.0 </tspan>
<tspan x="10" y="378">  │ ├── acorn@1.2.2 </tspan>
<tspan x="10" y="394">  │ ├── foreach@2.0.5 </tspan>
<tspan x="10" y="410">  │ ├── isarray@0.0.1 </tspan>
<tspan x="10" y="426">  │ └── object-keys@1.0.11 </tspan>
<tspan x="10" y="442">  ├── include-folder@1.0.0 </tspan>
<tspan x="10" y="458">  └── through@2.3.8</tspan>
</text>
</svg>
